<?xml version="1.0" encoding="UTF-8" standalone="no"?>
<svg width="640px" height="173px" viewBox="0 0 640 173" version="1.1" xmlns="http://www.w3.org/2000/svg" xmlns:xlink="http://www.w3.org/1999/xlink" xmlns:sketch="http://www.bohemiancoding.com/sketch/ns">
    <!-- Generator: Sketch 3.3.3 (12081) - http://www.bohemiancoding.com/sketch -->
    <title>Black_Ops_III_logo</title>
    <desc>Created with Sketch.</desc>
    <defs></defs>
    <g id="Page-1" stroke="none" stroke-width="1" fill="none" fill-rule="evenodd" sketch:type="MSPage">
        <g id="bo3" sketch:type="MSLayerGroup">
            <g id="Page-1" sketch:type="MSShapeGroup">
                <g id="bo3">
                    <g id="Page-1">
                        <g id="Black_Ops_III_logo">
                            <path d="M29.81,1.18 C37.51,0.19 45.31,0.77 52.97,1.8 C61.3,4.22 70.15,8.5 73.93,16.82 C77.38,23.69 76.28,31.53 77.15,38.92 C77.36,42.83 77.18,46.75 77.25,50.66 C66.63,51.61 55.95,51.02 45.29,51.18 C44.89,41.75 45.92,32.24 44.57,22.87 C44.25,18.51 38.53,17.63 35.4,19.46 C32.66,21.71 32.89,25.74 32.61,28.95 C32.59,48.97 32.55,68.99 32.62,89.01 C32.87,92.38 32.85,97.38 36.95,98.36 C39.71,98.97 43.39,98.07 44.27,95.03 C45.99,86.9 44.82,78.53 45.37,70.31 L45.88,69.81 C53.56,70.59 61.29,70.09 69,70.23 C71.75,70.22 74.51,70.22 77.27,70.31 C77.47,75.57 76.62,80.78 76.65,86.03 C76.57,91.95 75.7,98.25 72.05,103.11 C68.42,108.54 62.38,111.73 56.52,114.21 C45.23,117.69 32.95,117.4 21.53,114.61 C15.05,112.56 8.45,108.96 5,102.86 C2.96,98.82 1.83,94.35 1.35,89.86 C0.27,79.29 0.74,68.66 0.65,58.06 C0.77,46.72 0.24,35.34 1.42,24.03 C2.36,17.49 6.45,11.85 11.45,7.72 C17.11,4.5 23.12,1.22 29.81,1.18 L29.81,1.18 L29.81,1.18 Z" id="Shape" fill="#000000"></path>
                            <path d="M142.46,2.25 C144.09,16.24 147.34,30 149.11,43.98 C151.1,56 153.6,67.95 155.06,80.06 C156.99,91.53 159.14,102.97 160.92,114.46 C151.05,114.51 141.18,114.47 131.31,114.49 C129.92,107.52 129.61,100.4 128.33,93.41 C124.67,93.36 121.01,93.4 117.35,93.36 C118.26,87.36 119,81.32 119.38,75.27 C121.56,75.16 123.74,74.97 125.93,74.76 C124.92,62.12 123.11,49.57 121.58,36.98 C121.25,33.77 121.53,30.42 120.04,27.44 C117.95,30.66 118.96,34.63 118.36,38.21 C116.45,52.79 114.67,67.39 112.74,81.96 C112.17,92.83 110.08,103.56 109.18,114.4 C99.14,114.56 89.11,114.47 79.08,114.46 C79.87,106.15 81.54,97.97 82.61,89.7 C84.41,74.41 87.45,59.31 89.31,44.03 C91.09,30.06 93.77,16.22 95.38,2.23 C111.07,2.28 126.77,2.24 142.46,2.25 L142.46,2.25 Z" id="Shape" fill="#000000"></path>
                            <path d="M167.3,2.39 C177.95,2.4 188.61,2.33 199.26,2.43 C199.26,32.43 199.19,62.42 199.3,92.42 C205.93,92.63 212.58,92.19 219.2,92.64 C219.37,99.9 219.2,107.17 219.27,114.43 C201.95,114.55 184.64,114.46 167.32,114.48 C167.29,77.11 167.34,39.75 167.3,2.39 L167.3,2.39 L167.3,2.39 Z" id="Shape" fill="#000000"></path>
                            <path d="M227.51,2.37 C238.19,2.43 248.87,2.31 259.55,2.43 C259.57,32.42 259.6,62.41 259.51,92.4 C266.16,92.53 272.81,92.4 279.46,92.48 C279.47,99.81 279.45,107.14 279.47,114.47 C262.16,114.5 244.84,114.46 227.52,114.49 C227.54,77.12 227.55,39.75 227.51,2.37 L227.51,2.37 L227.51,2.37 Z" id="Shape" fill="#000000"></path>
                            <path d="M404.54,2.44 C415.21,2.38 425.89,2.42 436.56,2.41 C436.46,30.94 436.54,59.46 436.52,87.99 C436.44,91.18 436.76,94.36 437.72,97.41 C439.45,97.75 441.33,99.09 443.07,98.08 C446.28,96.99 446.05,92.93 446.29,90.14 C446.34,60.91 446.29,31.67 446.31,2.44 C457.02,2.4 467.73,2.39 478.44,2.44 C478.35,29.47 478.53,56.5 478.35,83.52 C477.86,89.48 478.36,95.89 475.19,101.22 C471.22,108.75 463.44,113.82 455.19,115.41 C446.15,117.42 436.73,116.84 427.68,115.17 C420.33,112.81 412.5,109.4 408.46,102.41 C404.52,95.98 404.73,88.22 404.64,80.96 C404.47,54.78 404.65,28.61 404.54,2.44 L404.54,2.44 L404.54,2.44 Z" id="Shape" fill="#000000"></path>
                            <path d="M486.24,2.36 C509.9,2.41 533.57,2.28 557.23,2.43 C557.13,9.34 557.38,16.26 557.12,23.16 C556.98,23.46 556.68,24.05 556.54,24.35 C550.21,24.56 543.86,24.24 537.53,24.48 C537.7,54.49 537.57,84.51 537.6,114.52 C526.85,114.57 516.09,114.53 505.34,114.55 C505.32,84.53 505.35,54.51 505.32,24.49 C498.97,24.31 492.63,24.44 486.28,24.41 C486.19,17.06 486.26,9.71 486.24,2.36 L486.24,2.36 L486.24,2.36 Z" id="Shape" fill="#000000"></path>
                            <path d="M563.5,2.39 C573.36,2.38 583.22,2.31 593.08,2.42 C594.37,8.56 596.77,14.39 598.7,20.34 C604.1,38.33 610.35,56.06 615.69,74.04 C615.87,87.76 615.87,101.5 615.69,115.21 C605.95,115.44 596.2,115.24 586.46,115.3 C586.35,102.2 586.42,89.11 586.42,76.01 C586.52,73.7 585.41,71.62 584.76,69.47 C577.73,47.09 570.73,24.7 563.5,2.39 L563.5,2.39 L563.5,2.39 Z" id="Shape" fill="#000000"></path>
                            <path d="M610.41,2.4 C620.04,2.33 629.68,2.38 639.32,2.36 C632.81,23.38 625.67,44.19 618.96,65.14 C616.9,57.95 614.07,50.99 612.18,43.74 C610.2,36.79 607.21,30.14 605.66,23.08 C606.89,16.11 608.56,9.22 610.41,2.4 L610.41,2.4 L610.41,2.4 Z" id="Shape" fill="#000000"></path>
                            <g id="Shape-+-Shape" transform="translate(320.000000, 2.000000)" fill="#000000">
                                <path d="M53.13,1.67 C59.77,2.85 67.14,4.92 71.11,10.85 C74.81,15.35 75.6,21.4 75.57,27.04 C75.63,48.02 75.63,69 75.58,89.98 C75.53,95.93 74.36,102.55 69.61,106.63 C64.18,111.21 56.78,112.04 49.96,112.45 C33.49,112.59 17.02,112.5 0.55,112.51 C0.52,75.15 0.53,37.79 0.54,0.44 C18.07,0.66 35.68,-0.39 53.13,1.67 L53.13,1.67 Z M42.44,22.45 C43.71,25.32 43.43,28.56 43.6,31.62 C43.68,46.74 43.6,61.85 43.64,76.96 C43.55,81.32 43.55,85.79 42.23,89.99 C40.68,93.67 36.13,93.79 32.74,93.56 C32.77,68.82 32.76,44.08 32.75,19.34 C36.18,19.18 40.4,19.12 42.44,22.45 L42.44,22.45 Z" id="Shape"></path>
                            </g>
                            <path d="M270.74,35.93 C272.14,28.34 282.72,25.95 288.06,30.87 C290.46,32.81 291.4,36.03 291.4,39.02 C291.42,45.37 291.45,51.72 291.38,58.06 C291.38,62.41 288.59,67.14 283.98,67.75 C281.18,68.92 278.32,67.74 275.52,67.28 C273.32,65.74 271.81,63.53 270.63,61.16 C270.53,52.76 270.23,44.32 270.74,35.93 L270.74,35.93 L270.74,35.93 Z" id="Shape" fill="#000000"></path>
                            <path d="M294.62,29.37 C299.51,29.33 304.41,29.34 309.31,29.37 C309.28,31.72 309.28,34.07 309.28,36.43 C307.28,36.45 305.29,36.43 303.3,36.43 C303.26,39.06 303.26,41.7 303.33,44.33 C305.02,44.35 306.73,44.36 308.43,44.39 C308.42,46.66 308.41,48.93 308.36,51.2 C306.66,51.2 304.97,51.19 303.28,51.19 C303.27,56.49 303.24,61.79 303.32,67.08 C300.44,67.39 297.54,67.34 294.66,67.31 C294.66,54.66 294.72,42.02 294.62,29.37 L294.62,29.37 L294.62,29.37 Z" id="Shape" fill="#000000"></path>
                            <path d="M279.5,34.4 C280.49,34.45 281.48,34.5 282.48,34.56 C282.71,43.75 282.8,52.96 282.42,62.15 C281.44,62.18 280.47,62.22 279.49,62.25 C279.01,52.99 279.02,43.66 279.5,34.4 L279.5,34.4 L279.5,34.4 Z" id="Shape" fill="#FFFFFF"></path>
                            <path d="M552.56558,126.529064 C556.109228,126.46088 559.652875,126.441399 563.207165,126.421918 C563.143315,141.76336 563.23909,157.095061 563.100749,172.436503 L552.714562,172.436503 C552.405956,170.176685 552.29954,167.897385 552.331465,165.627825 C552.554938,152.594905 552.012218,139.561985 552.56558,126.529064 L552.56558,126.529064 L552.56558,126.529064 Z" id="Shape" fill="#FF6800"></path>
                            <path d="M131.29,126.37 C134.76,126.37 138.23,126.37 141.7,126.38 C141.7,138.69 141.67,151 141.72,163.3 C152.95,163.38 164.19,163.3 175.42,163.35 C182.51,151.26 188.53,138.52 195.93,126.63 C199.12,126.09 202.38,126.43 205.59,126.42 C214.1,141.97 222.99,157.31 231.23,173 L218.93,173 L219.82,172.99 C213.01,161.2 207.18,148.87 200.54,136.98 C193.61,148.72 187.98,161.22 181.1,173 L131.37,173 C131.17,157.46 131.33,141.91 131.29,126.37 L131.29,126.37 L131.29,126.37 Z" id="Shape" fill="#000000"></path>
                            <path d="M233.51,132.86 C234.63,129.56 237.34,126.97 240.9,126.65 C248.91,126.04 256.96,126.53 264.99,126.37 C269.22,126.48 273.94,125.79 277.6,128.4 C279.82,130.04 280.32,132.91 280.95,135.42 C268.7,135.63 256.45,135.45 244.2,135.51 C243.6,144.74 243.52,154.1 244.26,163.33 C256.58,163.38 268.89,163.25 281.2,163.4 C280.85,166.74 279.17,169.99 275.95,171.36 C270.42,172.91 264.62,172.28 258.95,172.33 C252.62,172.17 246.24,172.81 239.96,171.81 C236.18,171.42 233.28,167.76 233.46,164.01 C233.39,153.63 233.35,143.24 233.51,132.86 L233.51,132.86 L233.51,132.86 Z" id="Shape" fill="#000000"></path>
                            <path d="M286.68,126.41 C290.24,126.36 293.8,126.36 297.37,126.39 C297.41,131.9 297.29,137.4 297.45,142.91 C302.98,139.31 308.33,135.46 313.82,131.8 C316.61,129.99 319.1,127.52 322.31,126.5 C327.72,126.15 333.15,126.47 338.57,126.35 C327.27,133.56 316.26,141.22 304.9,148.34 C317.1,156.87 330.12,164.22 342.13,173 L322.88,173 L324.52,172.99 C315.49,167.34 306.96,160.88 297.84,155.4 C293.79,157.06 290.37,159.89 286.68,162.18 C286.71,150.26 286.72,138.33 286.68,126.41 L286.68,126.41 L286.68,126.41 Z" id="Shape" fill="#000000"></path>
                            <path d="M421.53,126.43 C434.49,126.46 447.47,126.06 460.41,126.67 C462.55,127.9 465.11,129.13 465.75,131.77 C467.2,136.37 466.24,141.32 466.49,146.07 C466.97,150.91 462.98,155.89 457.96,155.68 C450.89,155.79 443.8,155.76 436.72,155.68 C436.74,152.66 436.65,149.64 437.15,146.65 C443.28,146.58 449.42,146.88 455.54,146.44 C455.87,142.82 455.87,139.17 455.54,135.55 C447.79,135.18 440.02,135.39 432.27,135.41 C432.33,147.55 432.24,159.69 432.3,171.83 C428.72,172.31 425.11,172.46 421.51,172.33 C421.56,157.03 421.52,141.73 421.53,126.43 L421.53,126.43 L421.53,126.43 Z" id="Shape" fill="#000000"></path>
                            <path d="M473,130.99 C473.99,127.65 477.78,126.73 480.83,126.49 C487.56,126.2 494.3,126.47 501.03,126.36 C504.9,126.38 509.15,126.08 512.5,128.4 C514.79,130.01 515.46,132.85 516.08,135.4 C504.59,135.66 493.1,135.42 481.6,135.52 C481.54,138.34 481.54,141.16 481.59,143.97 C490.27,144.67 499.01,143.87 507.71,144.4 C510.69,144.73 514.15,145.95 515.26,149.04 C516.82,155.22 516.65,161.85 515.14,168.02 C512.25,172.91 505.89,172.26 501.01,172.41 C492.7,172.01 484.23,173.23 476.05,171.34 C472.9,169.99 472.17,166.39 471.34,163.44 C483,163.04 494.7,163.71 506.35,163.09 C506.34,159.94 506.35,156.8 506.31,153.65 C497.89,153.51 489.47,153.67 481.06,153.58 C477.58,153.44 473.46,151.85 472.61,148.1 C471.32,142.55 471.07,136.42 473,130.99 L473,130.99 L473,130.99 Z" id="Shape" fill="#000000"></path>
                            <path d="M534.67,126.22 C538.96,126.16 543.26,126.17 547.56,126.23 C547.54,141.47 547.62,156.71 547.53,171.94 C543.25,172 538.97,171.99 534.7,171.95 C534.69,167.31 534.6,162.67 534.71,158.04 C535.18,157.68 536.13,156.95 536.61,156.59 C536.71,151.72 536.67,146.85 536.7,141.98 C536.02,141.3 535.35,140.63 534.68,139.96 C534.69,135.38 534.71,130.8 534.67,126.22 L534.67,126.22 L534.67,126.22 Z" id="Shape" fill="#FF6800"></path>
                            <g id="Shape-+-Shape" transform="translate(77.000000, 126.000000)" fill="#000000">
                                <path d="M0.27,0.38 C12.55,0.37 24.82,0.36 37.1,0.38 C40.32,0.46 44.15,1.17 45.95,4.16 C48.07,7.75 47.3,12.06 47.41,16.02 C47.61,18.71 45.7,20.81 44.32,22.91 C48.77,26.75 47.44,32.9 47.49,38.07 C47.33,43.29 41.61,46.15 36.95,46.12 C24.72,46.52 12.47,46.4 0.24,46.18 C0.32,30.91 0.25,15.65 0.27,0.38 L0.27,0.38 Z M36.32,9.58 C36.41,12.27 36.42,14.96 36.35,17.66 C29.38,17.95 22.41,17.67 15.44,17.84 C15.37,20.78 15.39,23.72 15.38,26.67 C22.25,26.83 29.15,26.41 36.01,26.89 C37.24,30.09 37.07,33.91 36.12,37.17 C28.03,37.6 19.9,37.35 11.8,37.31 C10.1,36.06 10.98,33.75 10.76,31.98 C11,24.49 10.34,16.97 11.14,9.51 C11.14,9.51 27.93,9.38 36.32,9.58 L36.32,9.58 Z" id="Shape"></path>
                            </g>
                            <g id="Shape-+-Shape" transform="translate(365.000000, 126.000000)" fill="#000000">
                                <path d="M31.02,0.37 C36.16,0.57 41.93,-0.54 46.41,2.67 C49.28,5.31 48.62,9.49 48.81,12.99 C48.69,21.68 49.04,30.38 48.61,39.07 C48.82,42.72 45.38,45.67 41.92,45.91 C36,46.8 29.98,46.19 24.02,46.32 C18.05,46.19 11.98,46.88 6.1,45.57 C2.36,44.61 0.44,40.57 0.68,36.95 C0.71,27.62 0.65,18.28 0.72,8.95 C0.69,4.97 3.46,1.3 7.52,0.8 C15.3,-0.11 23.19,0.6 31.02,0.37 L31.02,0.37 Z M38.52,9.59 C38.57,18.81 38.61,28.04 38.5,37.27 C29.48,37.32 20.46,37.31 11.45,37.28 C11.31,28.04 11.33,18.8 11.44,9.56 C20.47,9.55 29.49,9.51 38.52,9.59 L38.52,9.59 Z" id="Shape"></path>
                            </g>
                            <path d="M567.67,126.2375 C571.96,126.1775 576.26,126.1875 580.56,126.2475 C580.54,141.4875 580.62,156.7275 580.53,171.9575 C576.25,172.0175 571.97,172.0075 567.7,171.9675 C567.69,167.3275 567.6,162.6875 567.71,158.0575 C568.18,157.6975 569.13,156.9675 569.61,156.6075 C569.71,151.7375 569.67,146.8675 569.7,141.9975 C569.02,141.3175 568.35,140.6475 567.68,139.9775 C567.69,135.3975 567.71,130.8175 567.67,126.2375 L567.67,126.2375 L567.67,126.2375 Z" id="Shape-Copy" fill="#FF6800" transform="translate(574.114814, 149.098594) scale(-1, 1) translate(-574.114814, -149.098594) "></path>
                        </g>
                    </g>
                </g>
            </g>
        </g>
    </g>
</svg>