<?xml version="1.0" encoding="UTF-8" standalone="no"?>
<svg width="22px" height="12px" viewBox="0 0 22 12" version="1.1" xmlns="http://www.w3.org/2000/svg" xmlns:xlink="http://www.w3.org/1999/xlink" xmlns:sketch="http://www.bohemiancoding.com/sketch/ns">
    <!-- Generator: Sketch 3.3.3 (12081) - http://www.bohemiancoding.com/sketch -->
    <title>XMLID_1_</title>
    <desc>Created with Sketch.</desc>
    <defs></defs>
    <g id="Page-1" stroke="none" stroke-width="1" fill="none" fill-rule="evenodd" sketch:type="MSPage">
        <g id="XMLID_1_" sketch:type="MSLayerGroup" transform="translate(-1.000000, -6.000000)">
            <path d="M0,0 L0,24 L24,24 L24,0 L0,0 L0,0 Z M23,16 C23,17.1 22.1,18 21,18 L3,18 C1.9,18 1,17.1 1,16 L1,8 C1,6.9 1.9,6 3,6 L21,6 C22.1,6 23,6.9 23,8 L23,16 L23,16 Z" id="XMLID_2_" sketch:type="MSShapeGroup"></path>
            <g id="XMLID_5_" transform="translate(1.000000, 6.000000)" fill="#424242" sketch:type="MSShapeGroup">
                <path d="M20,0 L2,0 C0.9,0 0,0.9 0,2 L0,10 C0,11.1 0.9,12 2,12 L20,12 C21.1,12 22,11.1 22,10 L22,2 C22,0.9 21.1,0 20,0 L20,0 Z M10,7 L7,7 L7,10 L5,10 L5,7 L2,7 L2,5 L5,5 L5,2 L7,2 L7,5 L10,5 L10,7 L10,7 Z M14.5,9 C13.67,9 13,8.33 13,7.5 C13,6.67 13.67,6 14.5,6 C15.33,6 16,6.67 16,7.5 C16,8.33 15.33,9 14.5,9 L14.5,9 Z M18.5,6 C17.67,6 17,5.33 17,4.5 C17,3.67 17.67,3 18.5,3 C19.33,3 20,3.67 20,4.5 C20,5.33 19.33,6 18.5,6 L18.5,6 Z" id="XMLID_11_"></path>
            </g>
        </g>
    </g>
</svg>